<svg width="1390" height="200" viewBox="0 0 1390 200" fill="none" xmlns="http://www.w3.org/2000/svg">
<g clip-path="url(#clip0_1413_2084)">
<path d="M992.81 199H812.07C810.515 199 809.023 198.383 807.923 197.284C806.822 196.186 806.203 194.695 806.2 193.14V-70.1399C806.203 -71.695 806.822 -73.1855 807.923 -74.2841C809.023 -75.3828 810.515 -75.9999 812.07 -75.9999H992.81C994.363 -75.9972 995.852 -75.379 996.951 -74.2806C998.049 -73.1822 998.667 -71.6932 998.67 -70.1399V193.14C998.667 194.693 998.049 196.182 996.951 197.281C995.852 198.379 994.363 198.997 992.81 199ZM812.07 -75.7299C810.581 -75.7299 809.153 -75.1391 808.1 -74.0874C807.046 -73.0356 806.453 -71.6087 806.45 -70.1199V193.14C806.453 194.629 807.046 196.056 808.1 197.108C809.153 198.159 810.581 198.75 812.07 198.75H992.81C993.547 198.75 994.276 198.605 994.957 198.323C995.637 198.041 996.256 197.628 996.777 197.107C997.298 196.586 997.711 195.968 997.993 195.287C998.275 194.606 998.42 193.877 998.42 193.14V-70.1399C998.415 -71.6243 997.821 -73.0461 996.77 -74.0938C995.718 -75.1416 994.294 -75.7299 992.81 -75.7299H812.07Z" fill="#E0E0E0"/>
<path d="M784.38 199H603.64C602.87 199 602.108 198.849 601.397 198.554C600.687 198.26 600.041 197.828 599.496 197.284C598.952 196.74 598.521 196.094 598.226 195.383C597.932 194.672 597.78 193.91 597.78 193.14V-70.1399C597.78 -71.694 598.397 -73.1846 599.496 -74.2835C600.595 -75.3825 602.086 -75.9999 603.64 -75.9999H784.38C785.935 -75.9999 787.427 -75.3828 788.527 -74.2841C789.628 -73.1855 790.247 -71.695 790.25 -70.1399V193.14C790.247 194.695 789.628 196.186 788.527 197.284C787.427 198.383 785.935 199 784.38 199ZM603.64 -75.7299C602.902 -75.7338 602.171 -75.5923 601.489 -75.3134C600.806 -75.0345 600.185 -74.6237 599.661 -74.1045C599.137 -73.5852 598.721 -72.9678 598.436 -72.2875C598.151 -71.6072 598.003 -70.8774 598 -70.1399V193.14C598 193.877 598.145 194.606 598.427 195.287C598.709 195.968 599.122 196.586 599.643 197.107C600.164 197.628 600.783 198.041 601.463 198.323C602.144 198.605 602.873 198.75 603.61 198.75H784.38C785.869 198.75 787.297 198.159 788.35 197.108C789.404 196.056 789.997 194.629 790 193.14V-70.1399C789.992 -71.6252 789.397 -73.047 788.343 -74.0944C787.29 -75.1419 785.865 -75.7299 784.38 -75.7299H603.64Z" fill="#E0E0E0"/>
<path d="M576.09 199H395.34C393.787 198.998 392.298 198.379 391.199 197.281C390.101 196.182 389.483 194.693 389.48 193.14V-70.1399C389.483 -71.6932 390.101 -73.1822 391.199 -74.2806C392.298 -75.379 393.787 -75.9972 395.34 -75.9999H576.09C576.863 -76.0051 577.63 -75.8575 578.346 -75.5655C579.062 -75.2735 579.714 -74.8429 580.263 -74.2983C580.812 -73.7538 581.248 -73.1061 581.547 -72.3924C581.845 -71.6788 581.999 -70.9133 582 -70.1399V193.14C581.999 193.914 581.845 194.679 581.547 195.393C581.248 196.106 580.812 196.754 580.263 197.299C579.714 197.843 579.062 198.274 578.346 198.566C577.63 198.858 576.863 199.005 576.09 199ZM395.34 -75.7299C393.853 -75.7272 392.428 -75.1353 391.376 -74.0838C390.325 -73.0323 389.733 -71.6069 389.73 -70.1199V193.14C389.733 194.627 390.325 196.053 391.376 197.104C392.428 198.156 393.853 198.748 395.34 198.75H576.09C577.577 198.748 579.002 198.156 580.054 197.104C581.105 196.053 581.697 194.627 581.7 193.14V-70.1399C581.692 -71.6234 581.098 -73.0437 580.047 -74.0909C578.996 -75.1381 577.574 -75.7272 576.09 -75.7299H395.34Z" fill="#E0E0E0"/>
<path d="M1048.54 95.2001H340.07V179.58H1048.54V95.2001Z" fill="#E0E0E0"/>
<path d="M1047.16 64.9601H340.07V71.2301H1047.16V64.9601Z" fill="#E0E0E0"/>
<path d="M1020.07 68.7902H1014.05V99.1402H1020.07V68.7902Z" fill="#E0E0E0"/>
<path d="M938.68 68.7902H932.66V99.1402H938.68V68.7902Z" fill="#E0E0E0"/>
<path d="M857.3 68.7902H851.28V99.1402H857.3V68.7902Z" fill="#E0E0E0"/>
<path d="M775.92 68.7902H769.9V99.1402H775.92V68.7902Z" fill="#E0E0E0"/>
<path d="M694.53 68.7902H688.51V99.1402H694.53V68.7902Z" fill="#E0E0E0"/>
<path d="M613.15 68.7902H607.13V99.1402H613.15V68.7902Z" fill="#E0E0E0"/>
<path d="M531.76 68.7902H525.74V99.1402H531.76V68.7902Z" fill="#E0E0E0"/>
<path d="M450.38 68.7902H444.36V99.1402H450.38V68.7902Z" fill="#E0E0E0"/>
<path d="M368.99 68.7902H362.97V99.1402H368.99V68.7902Z" fill="#E0E0E0"/>
<path d="M442.98 103.58H371.75V171.79H442.98V103.58Z" fill="#F0F0F0"/>
<path d="M359.57 103.58H340.07V171.79H359.57V103.58Z" fill="#F0F0F0"/>
<path d="M525.48 103.58H454.25V171.79H525.48V103.58Z" fill="#F0F0F0"/>
<path d="M607.98 103.58H536.75V171.79H607.98V103.58Z" fill="#F0F0F0"/>
<path d="M686.6 103.58H615.37V171.79H686.6V103.58Z" fill="#F0F0F0"/>
<path d="M767.15 103.58H695.92V171.79H767.15V103.58Z" fill="#F0F0F0"/>
<path d="M848.68 103.58H777.45V171.79H848.68V103.58Z" fill="#F0F0F0"/>
<path d="M930.21 103.58H858.98V171.79H930.21V103.58Z" fill="#F0F0F0"/>
<path d="M1011.73 103.58H940.5V171.79H1011.73V103.58Z" fill="#F0F0F0"/>
<path d="M1048.53 103.58H1022.03V171.79H1048.53V103.58Z" fill="#F0F0F0"/>
<path d="M371.75 171.79L442.98 103.58V120.62L387.24 171.79H371.75Z" fill="#FAFAFA"/>
<path d="M537 171.79L608.23 103.58V120.62L552.49 171.79H537Z" fill="#FAFAFA"/>
<path d="M695.92 171.79L767.15 103.58V120.62L711.41 171.79H695.92Z" fill="#FAFAFA"/>
<path d="M857.6 171.79L928.83 103.58V120.62L873.09 171.79H857.6Z" fill="#FAFAFA"/>
<path d="M1006.49 35.8501H957.83C957.764 35.8501 957.7 35.8238 957.653 35.7769C957.606 35.73 957.58 35.6664 957.58 35.6001C957.58 35.5338 957.606 35.4702 957.653 35.4233C957.7 35.3764 957.764 35.3501 957.83 35.3501H1006.49C1006.56 35.3501 1006.62 35.3764 1006.67 35.4233C1006.71 35.4702 1006.74 35.5338 1006.74 35.6001C1006.74 35.6664 1006.71 35.73 1006.67 35.7769C1006.62 35.8238 1006.56 35.8501 1006.49 35.8501Z" fill="#263238"/>
<path d="M977 42.2701H935.59C935.525 42.2676 935.462 42.2405 935.416 42.1941C935.37 42.1477 935.343 42.0856 935.34 42.0201C935.34 41.9538 935.366 41.8902 935.413 41.8433C935.46 41.7964 935.524 41.7701 935.59 41.7701H977C977.066 41.7701 977.13 41.7964 977.177 41.8433C977.224 41.8902 977.25 41.9538 977.25 42.0201C977.25 42.0864 977.224 42.15 977.177 42.1969C977.13 42.2437 977.066 42.2701 977 42.2701Z" fill="#263238"/>
<path d="M714.35 37.3501H665.69C665.624 37.3476 665.562 37.3205 665.516 37.2741C665.47 37.2278 665.442 37.1656 665.44 37.1001C665.44 37.0338 665.466 36.9702 665.513 36.9233C665.56 36.8764 665.624 36.8501 665.69 36.8501H714.35C714.416 36.8501 714.48 36.8764 714.527 36.9233C714.574 36.9702 714.6 37.0338 714.6 37.1001C714.6 37.1664 714.574 37.23 714.527 37.2769C714.48 37.3238 714.416 37.3501 714.35 37.3501Z" fill="#263238"/>
<path d="M684.88 43.7501H643.45C643.384 43.7501 643.32 43.7238 643.273 43.6769C643.226 43.63 643.2 43.5664 643.2 43.5001C643.2 43.4338 643.226 43.3702 643.273 43.3233C643.32 43.2765 643.384 43.2501 643.45 43.2501H684.88C684.946 43.2501 685.01 43.2765 685.057 43.3233C685.104 43.3702 685.13 43.4338 685.13 43.5001C685.13 43.5664 685.104 43.63 685.057 43.6769C685.01 43.7238 684.946 43.7501 684.88 43.7501Z" fill="#263238"/>
<path d="M424.91 140.1H376.25C376.184 140.1 376.12 140.074 376.073 140.027C376.026 139.98 376 139.916 376 139.85C376 139.784 376.026 139.72 376.073 139.673C376.12 139.626 376.184 139.6 376.25 139.6H424.91C424.976 139.603 425.038 139.63 425.084 139.676C425.13 139.722 425.158 139.785 425.16 139.85C425.16 139.916 425.134 139.98 425.087 140.027C425.04 140.074 424.976 140.1 424.91 140.1Z" fill="#263238"/>
<path d="M395.44 146.51H354C353.934 146.51 353.87 146.484 353.823 146.437C353.776 146.39 353.75 146.326 353.75 146.26C353.75 146.194 353.776 146.13 353.823 146.083C353.87 146.036 353.934 146.01 354 146.01H395.44C395.506 146.01 395.57 146.036 395.617 146.083C395.664 146.13 395.69 146.194 395.69 146.26C395.69 146.326 395.664 146.39 395.617 146.437C395.57 146.484 395.506 146.51 395.44 146.51Z" fill="#263238"/>
<path d="M864.74 267C863.645 261.495 862.834 255.938 862.31 250.35C860.06 227.73 856.76 189.5 853.84 182.98C851.13 176.98 854.74 164.77 855.03 160.33C855.62 151.26 860.25 127.89 860.25 127.89C860.25 127.89 891.63 142.11 890.73 142.79C889.83 143.47 881.28 176.79 881.28 176.79C881.28 176.79 883.39 188.7 884.7 202.13C886.17 217.13 877.84 269.65 877.84 269.65L864.74 267Z" fill="#EBB376"/>
<path d="M857.37 144.16C859.726 127.585 863.449 111.232 868.5 95.2701L906.72 64.2701C906.72 64.2701 915.29 74.2001 916.2 84.5801C917.11 94.9601 911.68 102.19 907.39 107.16C903.1 112.13 888 152.68 888 152.68L857.37 144.16Z" fill="#333333"/>
<path opacity="0.2" d="M857.37 144.16C859.726 127.585 863.449 111.232 868.5 95.2701L906.72 64.2701C906.72 64.2701 915.29 74.2001 916.2 84.5801C917.11 94.9601 911.68 102.19 907.39 107.16C903.1 112.13 888 152.68 888 152.68L857.37 144.16Z" fill="black"/>
<path opacity="0.3" d="M856.85 149.4C856.85 149.4 864.96 157.24 873.25 172.06C877.513 179.866 880.548 188.281 882.25 197.01L878.09 198.33L855.76 156.9L856.85 149.4Z" fill="black"/>
<path opacity="0.3" d="M861.48 121.41L874.37 116.74C877.668 115.712 880.881 114.428 883.98 112.9L894.68 107.6L906.52 107.8L901.67 118.42L860.67 125.14L861.48 121.41Z" fill="black"/>
<path d="M809.47 46.2702C809.47 46.2702 797.36 41.6002 797.71 38.3202C797.71 38.3202 797.05 38.6002 797.04 38.6002C796.04 37.0702 795.22 35.6002 794.51 34.3002L791 53.9802C794.24 56.3302 804.55 62.2502 806.41 65.0502C806.41 65.0502 803.86 70.8302 809.26 65.1502C813.22 61.0002 809.47 46.2702 809.47 46.2702Z" fill="#EBB376"/>
<path opacity="0.2" d="M795.92 57.1602L799.87 49.1602C801.56 51.8502 804.24 54.5402 799.92 59.8302C799.92 59.8002 797 57.9902 795.92 57.1602Z" fill="black"/>
<path d="M761.22 43.2702C762.83 47.3802 768.83 53.6702 771.65 47.7902C774.47 41.9102 758.45 36.1402 761.22 43.2702Z" fill="#263238"/>
<path d="M788.39 28.6701C795.69 36.6701 799.97 41.0901 800.09 48.8601C800.28 60.5501 787.69 66.5601 778.09 60.8601C769.47 55.7201 758.98 43.4401 763.37 32.8601C764.35 30.5246 765.905 28.4751 767.89 26.9028C769.876 25.3304 772.227 24.2864 774.725 23.8681C777.223 23.4498 779.786 23.6708 782.176 24.5105C784.565 25.3501 786.703 26.7812 788.39 28.6701Z" fill="#EBB376"/>
<path d="M780.47 18.5102C775.15 15.4102 764.2 26.1802 763.47 31.3002C763.36 32.0702 772.73 28.8202 772.22 29.0702L776.16 27.0702C776.51 26.5102 777.93 26.1302 779.81 27.0702C779.81 27.0702 786.92 36.2102 793.65 36.1902C795.38 31.3002 794.9 29.0402 792.93 25.4502C790 20.1002 784.54 19.0602 780.47 18.5102Z" fill="#263238"/>
<path d="M779.81 41.9702C780.6 42.7402 780.81 43.7902 780.32 44.3002C779.83 44.8102 778.75 44.6102 777.96 43.8302C777.17 43.0502 776.96 42.0202 777.45 41.5002C777.94 40.9802 779 41.1902 779.81 41.9702Z" fill="#263238"/>
<path d="M772.38 49.9102C773.18 50.6902 773.38 51.7302 772.89 52.2502C772.4 52.7702 771.32 52.5502 770.53 51.7802C769.74 51.0102 769.53 49.9602 770.02 49.4502C770.51 48.9402 771.59 49.1402 772.38 49.9102Z" fill="#263238"/>
<path d="M774.41 46.9502C774.41 46.9502 775.91 53.3102 776.73 55.6802C778.81 55.5402 780.2 53.1902 780.2 53.1902L774.41 46.9502Z" fill="#D58745"/>
<path d="M778 36.3802C777.969 36.4666 777.914 36.5425 777.841 36.5991C777.768 36.6557 777.682 36.6907 777.59 36.7002C776.945 36.7668 776.323 36.9821 775.775 37.3291C775.227 37.6761 774.766 38.1454 774.43 38.7002C774.369 38.8253 774.262 38.9217 774.131 38.9685C774 39.0152 773.856 39.0087 773.73 38.9502C773.607 38.8898 773.513 38.7836 773.468 38.6544C773.424 38.5253 773.431 38.3837 773.49 38.2602C773.897 37.5335 774.473 36.9152 775.169 36.4575C775.865 35.9998 776.661 35.7161 777.49 35.6302C777.558 35.6203 777.627 35.6238 777.693 35.6406C777.759 35.6573 777.821 35.687 777.876 35.7278C777.931 35.7687 777.977 35.82 778.012 35.8787C778.047 35.9375 778.07 36.0025 778.08 36.0702C778.091 36.1798 778.063 36.2898 778 36.3802Z" fill="#263238"/>
<path d="M765.68 50.0902C765.593 50.1433 765.492 50.1709 765.39 50.1701C765.322 50.1715 765.255 50.1593 765.192 50.1342C765.129 50.1092 765.071 50.0718 765.023 50.0244C764.975 49.9769 764.936 49.9202 764.91 49.8577C764.884 49.7951 764.87 49.728 764.87 49.6601C764.849 48.8401 765.025 48.0269 765.383 47.289C765.742 46.5511 766.272 45.9102 766.93 45.4201C766.987 45.3827 767.051 45.3569 767.118 45.3442C767.185 45.3315 767.254 45.3321 767.321 45.346C767.388 45.3599 767.451 45.3869 767.508 45.4254C767.564 45.4638 767.613 45.513 767.65 45.5701C767.688 45.6259 767.714 45.6885 767.727 45.7544C767.741 45.8204 767.741 45.8883 767.728 45.9543C767.715 46.0203 767.689 46.083 767.651 46.139C767.614 46.1949 767.566 46.2429 767.51 46.2801C766.988 46.6706 766.57 47.1826 766.291 47.7717C766.012 48.3607 765.881 49.009 765.91 49.6601C765.91 49.7452 765.889 49.8288 765.849 49.9038C765.808 49.9787 765.751 50.0427 765.68 50.0902Z" fill="#263238"/>
<path d="M785.7 52.2002C785.661 52.1994 785.623 52.1901 785.589 52.1728C785.554 52.1555 785.524 52.1307 785.5 52.1002C785.479 52.0745 785.463 52.0447 785.455 52.0126C785.446 51.9806 785.443 51.9471 785.448 51.9142C785.453 51.8813 785.464 51.8497 785.482 51.8215C785.499 51.7933 785.523 51.769 785.55 51.7502C787.9 49.9702 787.65 46.4602 786.55 44.7502C786.516 44.6943 786.506 44.6274 786.521 44.5639C786.536 44.5004 786.575 44.4452 786.63 44.4102C786.687 44.376 786.756 44.3652 786.821 44.3801C786.886 44.395 786.943 44.4344 786.98 44.4902C788.18 46.4402 788.45 50.2002 785.83 52.1902C785.788 52.203 785.744 52.2064 785.7 52.2002Z" fill="#263238"/>
<path d="M797.84 31.9002C798.475 33.0898 798.867 34.394 798.992 35.7367C799.117 37.0794 798.974 38.4336 798.57 39.7202C797.47 43.1602 793.88 42.9102 791.65 40.3102C789.65 37.9702 787.79 33.3602 790.12 30.7002C792.45 28.0402 796.25 28.9702 797.84 31.9002Z" fill="#EBB376"/>
<path opacity="0.2" d="M792.85 37.6502C792.812 37.6513 792.774 37.6439 792.74 37.6283C792.705 37.6127 792.674 37.5894 792.65 37.5601C792.028 36.795 791.615 35.8821 791.45 34.9102C791.279 34.0809 791.403 33.218 791.8 32.4701C792.015 32.084 792.34 31.7704 792.733 31.5693C793.127 31.3681 793.571 31.2883 794.01 31.3402C794.076 31.3524 794.134 31.3893 794.173 31.4432C794.212 31.4972 794.229 31.5641 794.22 31.6302C794.208 31.695 794.171 31.7524 794.116 31.7899C794.062 31.8274 793.995 31.8418 793.93 31.8302C793.591 31.7968 793.249 31.8633 792.947 32.0214C792.645 32.1795 792.396 32.4223 792.23 32.7201C791.898 33.3671 791.796 34.1075 791.94 34.8202C792.074 35.7151 792.44 36.5596 793 37.2702C793.024 37.2926 793.043 37.3197 793.056 37.3498C793.069 37.3799 793.076 37.4124 793.076 37.4452C793.076 37.478 793.069 37.5104 793.056 37.5405C793.043 37.5706 793.024 37.5977 793 37.6202C792.955 37.6478 792.902 37.6584 792.85 37.6502Z" fill="black"/>
<path d="M786.52 34.5402C786.52 34.5402 798.01 49.0502 797.9 50.6402C797.45 57.2502 794.36 60.4102 794.36 60.4102C794.36 60.4102 795.09 60.5802 796.66 58.4102C798.23 56.2402 799.97 53.6502 799.92 51.4102C799.87 49.1702 793.76 41.3202 792.56 39.0102C791.319 36.8421 789.967 34.7393 788.51 32.7102L786.52 34.5402Z" fill="#263238"/>
<path d="M798 47.9802L799.64 41.2302L798.57 39.7202L796.89 45.8102L798 47.9802Z" fill="#263238"/>
<path opacity="0.4" d="M763.36 51.3702C763.36 51.3702 771.24 59.3702 772.04 59.0102C775.04 57.7702 784.9 44.7502 785.15 43.9402C785.4 43.1302 784.02 34.5002 783.72 34.3202C783.42 34.1402 778.72 32.0602 778.41 32.2002C777.039 32.728 775.703 33.3426 774.41 34.0402C774 34.4402 763.36 51.3702 763.36 51.3702Z" fill="#333333"/>
<path opacity="0.3" d="M770.4 58.7602C770.33 58.7102 772.62 40.0001 772.62 40.0001C772.62 40.0001 775.95 35.3702 775.85 35.7302C775.75 36.0902 773.14 58.3601 773.03 58.4501C772.596 58.8493 772.108 59.1859 771.58 59.4501C771.489 59.4806 771.391 59.4806 771.3 59.4501C770.98 59.2475 770.679 59.0166 770.4 58.7602Z" fill="white"/>
<path d="M797.57 11.0602C798.89 11.0602 805.44 10.8302 802.44 14.9702C799.44 19.1102 791 28.3202 791 28.3202C791 32.1302 791.81 35.5802 790.83 37.5202C789.85 39.4602 784.83 44.2702 784.83 44.2702C784.83 44.2702 781.83 41.6502 781.69 38.5102C781.55 35.3702 780.97 34.3302 778.25 34.8402C775.53 35.3502 763.25 51.9502 763.25 51.9502C763.25 51.9502 758.19 46.9502 756.86 41.0502C755.6 35.4602 756.86 28.4102 763.77 21.8802C775.31 11.0302 789.37 10.7902 797.57 11.0602Z" fill="#333333"/>
<path d="M769.07 44.3901C769.07 44.3901 760.72 37.2301 763.37 29.8701C766.97 19.8701 780.3 12.7101 780.11 12.7601C779.92 12.8101 776.74 13.8401 776.55 13.9201C776.36 14.0001 763.47 20.8101 761.21 30.7801C761.115 33.661 761.627 36.5297 762.712 39.2C763.797 41.8703 765.432 44.2825 767.51 46.2801L769.07 44.3901Z" fill="white"/>
<path d="M968.82 155.27C949.112 155.27 930.211 163.099 916.275 177.035C902.339 190.971 894.51 209.872 894.51 229.58C894.51 244.278 898.868 258.645 907.034 270.866C915.2 283.086 926.806 292.611 940.385 298.235C953.964 303.859 968.906 305.33 983.321 302.462C997.736 299.593 1010.98 292.515 1021.37 282.122C1031.76 271.728 1038.84 258.487 1041.7 244.071C1044.57 229.656 1043.1 214.714 1037.47 201.136C1031.84 187.558 1022.32 175.953 1010.1 167.789C997.876 159.625 983.508 155.268 968.81 155.27H968.82Z" fill="#263238"/>
<path d="M745.58 164.61C762.815 164.623 779.34 171.476 791.527 183.663C803.714 195.85 810.567 212.375 810.58 229.61C810.58 242.466 806.768 255.033 799.626 265.722C792.483 276.411 782.332 284.743 770.454 289.662C758.577 294.582 745.508 295.869 732.899 293.361C720.29 290.853 708.708 284.662 699.618 275.572C690.528 266.482 684.337 254.9 681.829 242.291C679.321 229.682 680.608 216.613 685.528 204.736C690.448 192.859 698.779 182.707 709.468 175.565C720.157 168.422 732.724 164.61 745.58 164.61ZM745.58 155.28C730.883 155.28 716.516 159.638 704.296 167.804C692.075 175.969 682.551 187.575 676.927 201.153C671.302 214.731 669.831 229.673 672.698 244.087C675.565 258.502 682.642 271.743 693.035 282.135C703.427 292.528 716.668 299.605 731.083 302.472C745.498 305.34 760.439 303.868 774.017 298.244C787.596 292.619 799.201 283.095 807.367 270.875C815.532 258.654 819.89 244.287 819.89 229.59C819.891 219.831 817.97 210.167 814.236 201.15C810.503 192.133 805.029 183.94 798.129 177.039C791.228 170.137 783.036 164.663 774.019 160.928C765.003 157.193 755.339 155.27 745.58 155.27V155.28Z" fill="#263238"/>
<path d="M674.47 229.59C674.468 243.659 678.638 257.413 686.453 269.112C694.268 280.81 705.377 289.929 718.375 295.314C731.373 300.699 745.676 302.108 759.474 299.364C773.273 296.62 785.948 289.845 795.896 279.897C805.845 269.948 812.619 257.273 815.364 243.475C818.108 229.676 816.698 215.373 811.314 202.375C805.929 189.378 796.81 178.269 785.111 170.454C773.413 162.639 759.659 158.468 745.59 158.47C726.729 158.473 708.64 165.967 695.303 179.304C681.966 192.641 674.473 210.729 674.47 229.59Z" fill="#263238"/>
<path d="M865.67 253.27L766.43 140.07C766.161 139.75 765.959 139.379 765.837 138.979C765.716 138.579 765.676 138.159 765.721 137.743C765.765 137.327 765.894 136.925 766.098 136.56C766.303 136.195 766.579 135.875 766.91 135.62C767.624 135.05 768.525 134.767 769.437 134.826C770.349 134.886 771.205 135.283 771.84 135.94L867.45 244.94L927.45 112.5C927.853 111.686 928.549 111.054 929.398 110.731C930.248 110.408 931.188 110.419 932.03 110.76C932.443 110.907 932.821 111.136 933.141 111.434C933.462 111.733 933.717 112.094 933.893 112.495C934.068 112.896 934.159 113.329 934.16 113.767C934.162 114.205 934.073 114.638 933.9 115.04L871.64 252.53C871.393 253.069 871.013 253.535 870.535 253.886C870.057 254.236 869.498 254.458 868.91 254.53H868.41C867.889 254.531 867.374 254.419 866.901 254.202C866.428 253.984 866.008 253.666 865.67 253.27Z" fill="#333333"/>
<path d="M965.67 228.13L918.89 136.07L918.79 135.86C918.677 135.592 918.62 135.304 918.624 135.013C918.627 134.722 918.69 134.434 918.809 134.169C918.929 133.904 919.101 133.665 919.316 133.47C919.531 133.274 919.785 133.124 920.06 133.03C920.617 132.817 921.234 132.82 921.789 133.038C922.344 133.257 922.797 133.675 923.06 134.21L969.89 226.27C970.042 226.56 970.121 226.883 970.12 227.21C970.097 227.808 969.837 228.372 969.398 228.779C968.96 229.186 968.378 229.402 967.78 229.38C967.348 229.385 966.922 229.271 966.55 229.051C966.178 228.83 965.873 228.512 965.67 228.13Z" fill="#333333"/>
<path d="M743.69 230.32C743.256 230.235 742.844 230.062 742.479 229.811C742.115 229.56 741.805 229.238 741.57 228.863C741.335 228.488 741.179 228.069 741.112 227.632C741.045 227.195 741.068 226.748 741.18 226.32L770 121.86C770.241 121.087 770.742 120.421 771.419 119.977C772.095 119.532 772.905 119.335 773.71 119.42L921.32 131.86C921.764 131.882 922.199 131.991 922.6 132.183C923 132.374 923.359 132.643 923.655 132.975C923.951 133.306 924.178 133.693 924.323 134.113C924.468 134.532 924.528 134.977 924.5 135.42C924.39 136.322 923.927 137.144 923.214 137.706C922.5 138.268 921.593 138.525 920.69 138.42L776 126.19L748 228.01C747.78 228.733 747.329 229.363 746.717 229.805C746.105 230.248 745.365 230.478 744.61 230.46C744.298 230.457 743.989 230.41 743.69 230.32Z" fill="#333333"/>
<path d="M772.86 125.92C772.418 125.882 771.988 125.755 771.596 125.547C771.204 125.339 770.858 125.055 770.578 124.711C770.299 124.366 770.091 123.969 769.967 123.543C769.844 123.117 769.807 122.671 769.86 122.23L774.13 95.2702C774.302 94.3786 774.819 93.5905 775.567 93.0761C776.315 92.5616 777.236 92.3619 778.13 92.5202C778.569 92.5635 778.995 92.6943 779.383 92.9051C779.77 93.1158 780.112 93.4021 780.387 93.747C780.662 94.092 780.865 94.4886 780.984 94.9134C781.103 95.3382 781.136 95.7825 781.08 96.2202L776.92 123.12C776.767 123.927 776.33 124.653 775.688 125.165C775.046 125.677 774.241 125.941 773.42 125.91C773.234 125.925 773.047 125.928 772.86 125.92Z" fill="#263238"/>
<path d="M934.38 100.27C928.94 102.41 889.77 100.02 887.1 106.1C884.43 112.18 902.26 107.01 910.1 109.6C917.94 112.19 943.72 120.86 949.82 113.1C960.26 99.7702 945.92 95.7602 934.38 100.27Z" fill="#263238"/>
<path d="M691.22 236.95C691.161 236.949 691.103 236.928 691.058 236.889C691.012 236.851 690.981 236.799 690.97 236.74C689.312 226.321 690.835 215.644 695.342 206.104C699.849 196.564 707.128 188.606 716.23 183.27C716.257 183.251 716.289 183.238 716.322 183.232C716.355 183.226 716.389 183.228 716.421 183.236C716.453 183.245 716.483 183.26 716.509 183.282C716.535 183.303 716.556 183.33 716.57 183.36C716.603 183.417 716.612 183.485 716.595 183.549C716.578 183.612 716.537 183.667 716.48 183.7C707.459 188.988 700.245 196.877 695.784 206.334C691.323 215.792 689.823 226.376 691.48 236.7C691.486 236.733 691.485 236.767 691.477 236.799C691.47 236.832 691.456 236.862 691.436 236.889C691.417 236.917 691.392 236.939 691.363 236.957C691.335 236.974 691.303 236.985 691.27 236.99L691.22 236.95Z" fill="#E0E0E0"/>
<path d="M1013.68 196.27C1013.64 196.27 1013.6 196.26 1013.57 196.24C1013.53 196.221 1013.5 196.194 1013.48 196.16C1007.53 187.558 999.128 180.951 989.365 177.204C979.602 173.457 968.935 172.745 958.76 175.16C958.695 175.172 958.628 175.16 958.572 175.124C958.517 175.089 958.477 175.034 958.46 174.97C958.453 174.938 958.452 174.905 958.457 174.872C958.463 174.84 958.475 174.808 958.492 174.781C958.51 174.753 958.533 174.729 958.56 174.71C958.587 174.691 958.618 174.677 958.65 174.67C968.924 172.232 979.694 172.954 989.551 176.74C999.407 180.526 1007.89 187.201 1013.89 195.89C1013.91 195.916 1013.92 195.946 1013.93 195.977C1013.94 196.009 1013.94 196.041 1013.93 196.073C1013.93 196.105 1013.91 196.135 1013.9 196.162C1013.88 196.189 1013.86 196.212 1013.83 196.23C1013.78 196.256 1013.73 196.27 1013.68 196.27Z" fill="#E0E0E0"/>
<path d="M781.68 107.69H756.25L746.78 121.96L734.14 122.19C733.67 122.198 733.223 122.39 732.894 122.725C732.564 123.06 732.38 123.511 732.38 123.98C732.38 124.447 732.563 124.895 732.891 125.228C733.218 125.561 733.663 125.752 734.13 125.76L749.77 126.11L759.37 114.44L770.65 115.14L765.07 139.73L769.96 140.73L775.47 125.28L787.02 125.86L787.64 121.27V112.06L781.68 107.69Z" fill="#333333"/>
<path d="M786.54 102.77H752C751.512 102.767 751.037 102.613 750.64 102.33C743.64 97.3302 732.18 89.1602 730.83 88.3302C730.323 88.069 729.928 87.6315 729.721 87.0999C729.513 86.5682 729.507 85.9791 729.704 85.4434C729.901 84.9077 730.286 84.4623 730.788 84.191C731.29 83.9196 731.874 83.8411 732.43 83.9702C732.98 84.1102 733.34 84.2002 752.75 98.0902H786.56C786.879 98.0693 787.2 98.1141 787.501 98.222C787.803 98.3299 788.079 98.4985 788.313 98.7174C788.546 98.9362 788.732 99.2007 788.86 99.4945C788.987 99.7882 789.053 100.105 789.053 100.425C789.053 100.745 788.987 101.062 788.86 101.356C788.732 101.65 788.546 101.914 788.313 102.133C788.079 102.352 787.803 102.52 787.501 102.628C787.2 102.736 786.879 102.781 786.56 102.76L786.54 102.77Z" fill="#263238"/>
<path d="M816.43 40.9502L797.82 53.6902C797.82 53.6902 795.64 66.9102 795.45 67.4602C795.26 68.0102 793.69 80.5602 792.8 86.2402C792.57 87.7102 790.86 89.5302 789.38 89.6102L765.33 90.8402L761.81 99.9302C761.81 99.9302 800.81 104.22 804.5 101.62C808.19 99.0202 815.84 71.3402 817.88 65.6202C819.92 59.9002 826.08 46.3302 816.43 40.9502Z" fill="#333333"/>
<path d="M765.07 91.5202C765.07 91.5202 750.88 86.3402 748.07 87.2502C745.26 88.1602 740.48 93.1002 740.55 94.6202C740.62 96.1402 742.75 97.6202 742.75 97.6202C742.75 97.6202 742.15 99.4402 743.21 99.9802C743.81 100.283 744.394 100.617 744.96 100.98C745.075 101.366 745.302 101.709 745.612 101.967C745.921 102.225 746.3 102.386 746.7 102.43C747.834 102.599 748.986 102.599 750.12 102.43L748.9 100.68L751.64 99.0902C752.465 99.9264 753.494 100.534 754.624 100.853C755.755 101.172 756.949 101.192 758.09 100.91C760.215 100.456 762.378 100.202 764.55 100.15L765.07 91.5202Z" fill="#EBB376"/>
<path d="M906.72 62.4002C906.72 62.4002 902.8 50.3002 875.26 43.5302C847.72 36.7602 825.82 35.4002 813.17 39.9202C800.52 44.4402 797.82 53.6902 797.82 53.6902L812.19 81.6902L866.19 89.5502L868.9 92.4802C868.9 92.4802 894 77.6202 901 70.8502C908 64.0802 906.72 62.4002 906.72 62.4002Z" fill="#333333"/>
<path d="M816.43 40.9502L797.82 53.6902C797.82 53.6902 795.64 66.9102 795.45 67.4602C795.26 68.0102 793.69 80.5602 792.8 86.2402C792.57 87.7102 790.86 89.5302 789.38 89.6102L765.33 90.8402L762.33 100.43C762.33 100.43 800.76 104.22 804.47 101.62C808.18 99.0202 815.81 71.3402 817.85 65.6202C819.89 59.9002 826.08 46.3302 816.43 40.9502Z" fill="#263238"/>
<path d="M906.72 62.4002C906.72 62.4002 902.8 50.3002 875.26 43.5302C847.72 36.7602 825.82 35.4002 813.17 39.9202C800.52 44.4402 797.82 53.6902 797.82 53.6902L812.19 81.6902L866.19 89.5502L868.9 92.4802C868.9 92.4802 894 77.6202 901 70.8502C908 64.0802 906.72 62.4002 906.72 62.4002Z" fill="#263238"/>
<path opacity="0.3" d="M812.99 81.8501L819.65 82.8201L817.52 62.4001L812.99 81.8501Z" fill="black"/>
<path d="M863.5 82.5802C858.91 83.5102 844.94 88.8402 829.5 99.0302C814.06 109.22 804.22 118.43 805.89 127.92C807.56 137.41 869.94 198.92 869.94 198.92L880.05 192.51C880.05 192.51 863.9 154.34 853.05 145.31C848.442 141.504 844.152 137.331 840.22 132.83C839.851 132.4 839.596 131.884 839.48 131.33C839.364 130.775 839.39 130.2 839.555 129.658C839.721 129.116 840.021 128.625 840.427 128.23C840.834 127.836 841.334 127.55 841.88 127.4L877 114.85L894.11 91.3802L863.5 82.5802Z" fill="#EBB376"/>
<path d="M881.85 195.34L880.39 200.98L869.77 203.42L855.59 184.47L872.03 174.94L881.85 195.34Z" fill="white"/>
<path d="M868.73 202.51L872.07 199.93C872.446 199.646 872.884 199.455 873.348 199.371C873.812 199.288 874.289 199.315 874.74 199.45C878.74 200.59 879.38 198.45 879.56 194.38C880.77 193.2 882.31 194.45 882.74 194.77L892.26 201.92C892.644 202.204 892.901 202.628 892.974 203.1C893.047 203.572 892.931 204.054 892.65 204.44C892.541 204.583 892.413 204.711 892.27 204.82L881.27 213.35L865.82 225.27C861.61 228.53 857.46 224.96 858.89 223.27C865.35 215.51 869.09 208.95 869.75 204.82C869.89 204.06 869.2 204.12 868.73 202.51Z" fill="#333333"/>
<path d="M824.2 102.67L843.2 127.07L873.73 117.61C876.582 116.72 879.36 115.61 882.04 114.29L908.91 100.98L906.8 63.8302L874 76.0302C857.16 81.2702 835.8 92.9502 824.2 102.67Z" fill="#333333"/>
<path d="M824.2 102.67L843.2 127.07L872.7 117.93C876.236 116.828 879.679 115.45 883 113.81L908.9 100.98L906.79 63.8302L874 76.0302C857.16 81.2702 835.8 92.9502 824.2 102.67Z" fill="#333333"/>
<path opacity="0.2" d="M824.2 102.67L843.2 127.07L873.06 117.81C876.361 116.791 879.575 115.507 882.67 113.97L908.91 100.97L906.8 63.8202L874 76.0302C857.16 81.2702 835.8 92.9502 824.2 102.67Z" fill="black"/>
<path opacity="0.3" d="M831.69 112.29L876.52 87.6102L894.14 88.5602L837.24 119.41L831.69 112.29Z" fill="white"/>
<path d="M561.47 81.6602C556.88 82.5902 542.91 87.9202 527.47 98.1102C512.03 108.3 502.19 117.51 503.86 127C505.53 136.49 567.91 198 567.91 198L578.91 191C578.91 191 561.91 153.39 551.04 144.36C546.432 140.554 542.142 136.381 538.21 131.88C537.841 131.451 537.586 130.936 537.469 130.382C537.352 129.828 537.377 129.253 537.542 128.711C537.706 128.17 538.005 127.678 538.41 127.283C538.816 126.888 539.314 126.601 539.86 126.45L575.18 116.53L592.1 90.4002L561.47 81.6602Z" fill="#CD7A63"/>
<path opacity="0.3" d="M551.88 145.17C551.88 145.17 543.26 173.17 547.21 177.17C551.16 181.17 555.73 185.99 556.1 185.99C556.47 185.99 560.72 154.38 560.72 154.38L551.88 145.17Z" fill="black"/>
<path d="M579.82 194.42L578.36 200.07L567.74 202.5L553.56 183.55L570 174.02L579.82 194.42Z" fill="white"/>
<path d="M566.7 201.59L570.04 199.01C570.416 198.726 570.854 198.534 571.318 198.451C571.782 198.368 572.259 198.395 572.71 198.53C576.71 199.67 577.35 197.53 577.53 193.46C578.74 192.28 580.28 193.53 580.71 193.85L590.23 201C590.615 201.285 590.872 201.711 590.945 202.185C591.018 202.659 590.901 203.142 590.62 203.53C590.511 203.671 590.383 203.795 590.24 203.9L579.24 212.43L563.79 224.37C559.58 227.63 555.43 224.06 556.86 222.37C563.32 214.62 567.06 208.05 567.72 203.92C567.86 203.14 567.17 203.2 566.7 201.59Z" fill="#333333"/>
<path d="M522.17 101.75L541.17 126.15L561 120.8L569.2 90.7201L562.2 80.1701C547.934 85.5022 534.466 92.763 522.17 101.75Z" fill="#263238"/>
<path d="M558.89 121.18L565.04 97.1801L560.72 91.6001C560.72 91.6001 562.59 97.2101 561.97 97.7601C561.35 98.3101 547.9 124.27 547.9 124.27L558.89 121.18Z" fill="black"/>
<path d="M666.78 163.69C679.636 163.69 692.203 167.502 702.892 174.645C713.581 181.787 721.912 191.938 726.832 203.816C731.752 215.693 733.039 228.762 730.531 241.371C728.023 253.98 721.832 265.562 712.742 274.652C703.651 283.742 692.07 289.933 679.461 292.441C666.852 294.949 653.783 293.662 641.906 288.742C630.028 283.823 619.877 275.491 612.734 264.802C605.592 254.113 601.78 241.546 601.78 228.69C601.793 211.455 608.646 194.93 620.833 182.743C633.02 170.556 649.545 163.703 666.78 163.69ZM666.78 154.36C647.072 154.36 628.171 162.189 614.235 176.125C600.299 190.061 592.47 208.962 592.47 228.67C592.472 243.367 596.832 257.734 604.999 269.953C613.166 282.172 624.773 291.695 638.352 297.317C651.931 302.94 666.873 304.41 681.287 301.54C695.701 298.671 708.941 291.592 719.332 281.198C729.723 270.804 736.799 257.563 739.664 243.147C742.529 228.732 741.056 213.791 735.43 200.214C729.803 186.636 720.277 175.032 708.056 166.868C695.835 158.704 681.467 154.348 666.77 154.35L666.78 154.36Z" fill="#263238"/>
<path d="M595.65 228.67C595.648 242.739 599.818 256.492 607.633 268.191C615.447 279.889 626.556 289.008 639.553 294.393C652.55 299.778 666.852 301.188 680.651 298.445C694.449 295.701 707.124 288.928 717.073 278.98C727.022 269.033 733.797 256.359 736.543 242.561C739.288 228.762 737.88 214.46 732.497 201.462C727.113 188.464 717.996 177.355 706.299 169.538C694.601 161.722 680.849 157.55 666.78 157.55C647.918 157.553 629.829 165.046 616.49 178.383C603.151 191.72 595.655 209.808 595.65 228.67Z" fill="#333333"/>
<path d="M443.55 163.69C460.785 163.703 477.31 170.556 489.497 182.743C501.684 194.93 508.537 211.455 508.55 228.69C508.55 241.546 504.738 254.113 497.596 264.802C490.453 275.491 480.302 283.823 468.424 288.742C456.547 293.662 443.478 294.949 430.869 292.441C418.26 289.933 406.678 283.742 397.588 274.652C388.498 265.562 382.307 253.98 379.799 241.371C377.291 228.762 378.578 215.693 383.498 203.816C388.418 191.938 396.749 181.787 407.438 174.645C418.127 167.502 430.694 163.69 443.55 163.69ZM443.55 154.36C428.853 154.36 414.486 158.718 402.266 166.884C390.045 175.049 380.521 186.655 374.897 200.233C369.272 213.811 367.801 228.753 370.668 243.167C373.535 257.582 380.612 270.823 391.005 281.215C401.397 291.608 414.638 298.685 429.053 301.552C443.468 304.42 458.409 302.948 471.987 297.324C485.566 291.699 497.171 282.175 505.337 269.955C513.502 257.734 517.86 243.367 517.86 228.67C517.86 208.962 510.031 190.061 496.095 176.125C482.159 162.189 463.258 154.36 443.55 154.36Z" fill="#263238"/>
<path d="M372.44 228.67C372.438 242.739 376.608 256.493 384.423 268.192C392.239 279.89 403.347 289.009 416.345 294.394C429.343 299.779 443.646 301.188 457.444 298.444C471.243 295.7 483.918 288.925 493.867 278.977C503.815 269.028 510.589 256.353 513.334 242.555C516.078 228.756 514.669 214.453 509.284 201.455C503.899 188.458 494.78 177.349 483.081 169.534C471.383 161.718 457.629 157.548 443.56 157.55C424.699 157.553 406.611 165.047 393.273 178.384C379.936 191.721 372.443 209.809 372.44 228.67Z" fill="#333333"/>
<path d="M563.64 252.37L464.4 139.15C464.131 138.83 463.929 138.459 463.807 138.059C463.686 137.659 463.646 137.238 463.691 136.823C463.736 136.407 463.864 136.005 464.068 135.64C464.273 135.275 464.549 134.955 464.88 134.7C465.594 134.13 466.495 133.847 467.407 133.906C468.319 133.966 469.176 134.363 469.81 135.02L565.42 244.02L625.42 111.58C625.825 110.767 626.521 110.138 627.371 109.817C628.22 109.496 629.159 109.508 630 109.85C630.413 109.994 630.792 110.222 631.113 110.519C631.434 110.816 631.691 111.176 631.866 111.577C632.042 111.978 632.133 112.411 632.133 112.848C632.134 113.286 632.044 113.719 631.87 114.12L569.61 251.61C569.363 252.149 568.983 252.615 568.505 252.965C568.027 253.316 567.468 253.538 566.88 253.61H566.38C565.861 253.614 565.347 253.505 564.874 253.291C564.401 253.077 563.98 252.763 563.64 252.37Z" fill="#263238"/>
<path d="M663.64 227.21L616.86 135.15C616.86 135.08 616.79 135.02 616.76 134.94C616.647 134.672 616.59 134.384 616.594 134.093C616.597 133.802 616.66 133.514 616.779 133.249C616.899 132.983 617.071 132.745 617.286 132.549C617.501 132.354 617.755 132.204 618.03 132.11C618.587 131.897 619.204 131.9 619.759 132.118C620.314 132.337 620.767 132.755 621.03 133.29L667.82 225.35C667.972 225.64 668.051 225.963 668.05 226.29C668.027 226.888 667.767 227.452 667.328 227.859C666.89 228.266 666.308 228.482 665.71 228.46C665.284 228.458 664.867 228.341 664.503 228.12C664.138 227.9 663.84 227.586 663.64 227.21Z" fill="#263238"/>
<path d="M441.66 229.4C441.225 229.316 440.812 229.144 440.447 228.894C440.081 228.643 439.771 228.321 439.536 227.945C439.301 227.57 439.145 227.151 439.078 226.713C439.012 226.275 439.036 225.828 439.15 225.4L468 120.94C468.241 120.167 468.742 119.501 469.419 119.056C470.095 118.612 470.905 118.415 471.71 118.5L619.32 130.95C619.763 130.97 620.198 131.079 620.599 131.269C621 131.459 621.359 131.728 621.655 132.058C621.951 132.389 622.178 132.775 622.323 133.194C622.468 133.613 622.528 134.057 622.5 134.5C622.39 135.402 621.927 136.224 621.214 136.786C620.5 137.348 619.593 137.605 618.69 137.5L474 125.27L445.93 227.09C445.711 227.813 445.261 228.445 444.649 228.887C444.036 229.33 443.295 229.559 442.54 229.54C442.241 229.538 441.945 229.491 441.66 229.4Z" fill="#263238"/>
<path d="M470.83 125C470.388 124.962 469.958 124.835 469.566 124.627C469.174 124.419 468.828 124.135 468.548 123.791C468.268 123.446 468.061 123.049 467.937 122.623C467.814 122.197 467.777 121.751 467.83 121.31L472.07 94.3902C472.245 93.4998 472.761 92.7134 473.509 92.1993C474.257 91.6853 475.176 91.4846 476.07 91.6402C476.513 91.6771 476.945 91.8034 477.338 92.0114C477.732 92.2194 478.079 92.5048 478.359 92.8504C478.639 93.196 478.847 93.5948 478.969 94.0226C479.091 94.4505 479.125 94.8987 479.07 95.3402L474.86 122.27C474.707 123.077 474.27 123.803 473.628 124.315C472.985 124.827 472.181 125.091 471.36 125.06C471.182 125.056 471.005 125.035 470.83 125Z" fill="#263238"/>
<path d="M632.35 99.3702C626.91 101.51 587.74 99.1202 585.07 105.2C582.4 111.28 600.23 106.11 608.07 108.7C615.91 111.29 641.69 119.96 647.79 112.2C658.23 98.8502 643.89 94.8402 632.35 99.3702Z" fill="#333333"/>
<path d="M389.19 236.03C389.131 236.029 389.073 236.007 389.028 235.969C388.982 235.931 388.951 235.878 388.94 235.82C387.265 225.388 388.78 214.694 393.287 205.138C397.795 195.583 405.084 187.612 414.2 182.27C414.228 182.25 414.261 182.235 414.295 182.228C414.329 182.221 414.364 182.22 414.399 182.228C414.433 182.235 414.465 182.249 414.493 182.27C414.522 182.29 414.546 182.316 414.563 182.347C414.581 182.377 414.592 182.41 414.596 182.445C414.599 182.48 414.596 182.515 414.585 182.549C414.574 182.582 414.557 182.613 414.534 182.639C414.51 182.665 414.482 182.686 414.45 182.7C405.429 187.988 398.215 195.877 393.754 205.334C389.293 214.791 387.793 225.376 389.45 235.7C389.456 235.733 389.455 235.767 389.447 235.799C389.44 235.832 389.426 235.862 389.406 235.889C389.387 235.916 389.362 235.939 389.333 235.957C389.305 235.974 389.273 235.985 389.24 235.99L389.19 236.03Z" fill="#263238"/>
<path d="M711.65 195.35C711.61 195.348 711.572 195.337 711.537 195.318C711.503 195.299 711.473 195.272 711.45 195.24C705.503 186.638 697.098 180.031 687.335 176.284C677.572 172.537 666.905 171.825 656.73 174.24C656.698 174.247 656.664 174.248 656.632 174.243C656.599 174.237 656.568 174.225 656.54 174.208C656.512 174.19 656.488 174.167 656.469 174.14C656.45 174.113 656.437 174.082 656.43 174.05C656.418 173.985 656.431 173.918 656.466 173.863C656.501 173.807 656.556 173.767 656.62 173.75C666.894 171.312 677.664 172.034 687.521 175.82C697.377 179.606 705.861 186.281 711.86 194.97C711.879 194.996 711.892 195.026 711.9 195.057C711.907 195.089 711.908 195.121 711.902 195.153C711.897 195.185 711.885 195.215 711.867 195.242C711.849 195.269 711.827 195.292 711.8 195.31C711.754 195.336 711.703 195.35 711.65 195.35Z" fill="#263238"/>
<path d="M479.65 106.77H454.22L444.75 121.04L432.11 121.27C431.64 121.278 431.193 121.47 430.864 121.805C430.534 122.14 430.35 122.591 430.35 123.06C430.35 123.527 430.533 123.975 430.861 124.308C431.188 124.641 431.633 124.832 432.1 124.84L447.74 125.19L457.34 113.52L468.62 114.22L463 138.81L467.89 139.81L473.4 124.36L484.95 124.94L485.57 120.35V111.14L479.65 106.77Z" fill="#263238"/>
<path d="M484.51 101.65H450C449.555 101.651 449.121 101.511 448.76 101.25C441.76 96.2501 430.24 88.0401 428.93 87.2501C428.426 87.0385 428.023 86.6413 427.804 86.1406C427.584 85.64 427.566 85.0742 427.752 84.5604C427.939 84.0466 428.315 83.624 428.804 83.3802C429.293 83.1363 429.858 83.0897 430.38 83.2501C430.89 83.3701 431.25 83.4601 450.68 97.3701H484.56C484.853 97.3501 485.146 97.3904 485.423 97.4886C485.699 97.5869 485.952 97.7409 486.167 97.9411C486.381 98.1413 486.552 98.3835 486.669 98.6525C486.786 98.9216 486.846 99.2118 486.846 99.5051C486.846 99.7985 486.786 100.089 486.669 100.358C486.552 100.627 486.381 100.869 486.167 101.069C485.952 101.269 485.699 101.423 485.423 101.522C485.146 101.62 484.853 101.66 484.56 101.64L484.51 101.65Z" fill="#263238"/>
<path d="M507.44 45.3601C507.44 45.3601 495.33 40.6901 495.68 37.3601C495.68 37.3601 495.02 37.6401 495.01 37.6401C494.01 36.1101 493.19 34.6401 492.48 33.3401L489 53.0701C492.24 55.4101 502.55 61.3401 504.41 64.1301C504.41 64.1301 501.86 69.9101 507.26 64.2301C511.19 60.0801 507.44 45.3601 507.44 45.3601Z" fill="#CD7A63"/>
<path opacity="0.2" d="M493.89 56.2701L497.89 48.2701C499.58 50.9601 502.26 53.6501 497.89 58.9401C497.89 58.8801 494.94 57.0701 493.89 56.2701Z" fill="black"/>
<path d="M459.19 42.2701C460.8 46.3901 466.8 52.6801 469.62 46.7901C472.44 40.9001 456.42 35.2701 459.19 42.2701Z" fill="#263238"/>
<path d="M486.35 27.7501C493.66 35.7501 497.94 40.1701 498.06 47.9401C498.25 59.6401 485.66 65.6401 476.06 59.9401C467.44 54.8001 456.95 42.5301 461.34 31.9401C462.32 29.6065 463.875 27.559 465.86 25.9881C467.845 24.4172 470.194 23.3741 472.691 22.9559C475.187 22.5377 477.749 22.7579 480.137 23.5962C482.525 24.4345 484.663 25.8635 486.35 27.7501Z" fill="#CD7A63"/>
<path d="M478.44 17.5901C473.12 14.4901 462.17 25.2601 461.44 30.3901C461.33 31.1501 470.7 27.9001 470.19 28.1501L474.13 26.1501C474.48 25.5901 475.9 25.2101 477.78 26.1501C477.78 26.1501 484.89 35.2901 491.62 35.2701C493.35 30.3901 492.87 28.1201 490.9 24.5301C488 19.1801 482.51 18.1501 478.44 17.5901Z" fill="#263238"/>
<path d="M477.78 41.0501C478.57 41.8201 478.78 42.8701 478.29 43.3801C477.8 43.8901 476.72 43.6901 475.93 42.9101C475.14 42.1301 474.93 41.1001 475.41 40.5801C475.89 40.0601 477 40.2701 477.78 41.0501Z" fill="#263238"/>
<path d="M470.35 48.9901C471.15 49.7701 471.35 50.8101 470.86 51.3301C470.37 51.8501 469.29 51.6301 468.5 50.8601C467.71 50.0901 467.5 49.0401 467.99 48.5301C468.48 48.0201 469.56 48.2701 470.35 48.9901Z" fill="#263238"/>
<path d="M472.38 46.0302C472.38 46.0302 473.88 52.3902 474.7 54.7602C476.78 54.6202 478.17 52.2702 478.17 52.2702L472.38 46.0302Z" fill="#AD6359"/>
<path d="M475.92 35.4601C475.889 35.5466 475.833 35.6224 475.761 35.679C475.688 35.7356 475.601 35.7706 475.51 35.7801C474.86 35.8522 474.236 36.0751 473.687 36.431C473.139 36.7869 472.681 37.266 472.35 37.8301C472.289 37.9553 472.182 38.0516 472.051 38.0984C471.92 38.1452 471.776 38.1386 471.65 38.0801C471.527 38.0198 471.433 37.9135 471.388 37.7844C471.344 37.6552 471.351 37.5136 471.41 37.3901C471.817 36.6634 472.393 36.0451 473.089 35.5874C473.785 35.1298 474.581 34.846 475.41 34.7601C475.478 34.7502 475.547 34.7537 475.613 34.7705C475.679 34.7873 475.741 34.8169 475.796 34.8578C475.851 34.8987 475.897 34.9499 475.932 35.0087C475.967 35.0674 475.99 35.1325 476 35.2001C476 35.2929 475.972 35.3835 475.92 35.4601Z" fill="#263238"/>
<path d="M485.32 44.4601L481.54 53.6701C482.672 53.9755 483.838 54.1334 485.01 54.1401C485.567 54.1103 486.113 53.9672 486.613 53.7197C487.114 53.4721 487.558 53.1252 487.92 52.7001C488.479 52.0936 488.848 51.3365 488.981 50.5225C489.114 49.7085 489.006 48.8733 488.67 48.1201C487.889 46.6309 486.734 45.3698 485.32 44.4601Z" fill="black"/>
<path d="M481.84 52.9301C481.84 52.9301 483.16 53.2201 483.67 52.9301C484.18 52.6401 486.67 45.5801 486.67 45.5801L485.29 44.5001L481.84 52.9301Z" fill="white"/>
<path d="M487 53.4901C486.715 52.9717 486.544 52.3977 486.501 51.8074C486.458 51.2172 486.543 50.6245 486.75 50.0701C486.988 49.0765 487.573 48.2007 488.4 47.6001C488.719 48.1276 488.922 48.7173 488.994 49.3296C489.067 49.9419 489.007 50.5627 488.82 51.1501C488.53 52.1316 487.88 52.9674 487 53.4901Z" fill="#DE5753"/>
<path d="M463.65 49.1701C463.563 49.2232 463.462 49.2509 463.36 49.2501C463.292 49.2514 463.225 49.2392 463.162 49.2142C463.099 49.1892 463.041 49.1518 462.993 49.1043C462.944 49.0568 462.906 49.0001 462.88 48.9376C462.854 48.8751 462.84 48.8079 462.84 48.7401C462.819 47.92 462.995 47.1068 463.353 46.3689C463.712 45.6311 464.242 44.9901 464.9 44.5001C464.957 44.4627 465.021 44.4369 465.088 44.4241C465.155 44.4114 465.224 44.412 465.291 44.426C465.358 44.4399 465.421 44.4669 465.478 44.5053C465.534 44.5438 465.583 44.593 465.62 44.6501C465.658 44.7058 465.684 44.7685 465.697 44.8344C465.711 44.9003 465.711 44.9682 465.698 45.0342C465.685 45.1002 465.659 45.163 465.621 45.2189C465.584 45.2748 465.536 45.3228 465.48 45.3601C464.958 45.7505 464.54 46.2625 464.261 46.8516C463.982 47.4407 463.851 48.089 463.88 48.7401C463.881 48.8253 463.86 48.9093 463.82 48.9844C463.78 49.0595 463.721 49.1233 463.65 49.1701Z" fill="#263238"/>
<path d="M495.81 30.9801C496.445 32.1698 496.837 33.474 496.962 34.8167C497.087 36.1593 496.944 37.5135 496.54 38.8001C495.44 42.2401 491.85 41.9901 489.62 39.3901C487.62 37.0501 485.76 32.3901 488.09 29.7901C490.42 27.1901 494.22 28.0501 495.81 30.9801Z" fill="#CD7A63"/>
<path opacity="0.2" d="M490.82 36.7301C490.782 36.7313 490.744 36.7238 490.71 36.7082C490.675 36.6926 490.644 36.6693 490.62 36.6401C489.998 35.875 489.585 34.9621 489.42 33.9901C489.249 33.1608 489.373 32.298 489.77 31.5501C489.984 31.1631 490.309 30.8487 490.702 30.6474C491.096 30.4461 491.541 30.3669 491.98 30.4201C492.045 30.4323 492.104 30.4693 492.143 30.5232C492.182 30.5772 492.199 30.6441 492.19 30.7101C492.178 30.775 492.141 30.8324 492.086 30.8699C492.032 30.9073 491.965 30.9218 491.9 30.9101C491.561 30.8768 491.219 30.9432 490.917 31.1013C490.615 31.2594 490.366 31.5023 490.2 31.8001C489.868 32.4504 489.765 33.1942 489.91 33.9101C490.061 34.7955 490.44 35.6262 491.01 36.3201C491.034 36.3426 491.053 36.3697 491.066 36.3998C491.079 36.4299 491.086 36.4623 491.086 36.4951C491.086 36.5279 491.079 36.5604 491.066 36.5905C491.053 36.6206 491.034 36.6477 491.01 36.6701C490.985 36.6944 490.955 36.7124 490.922 36.7229C490.889 36.7333 490.854 36.7358 490.82 36.7301Z" fill="black"/>
<path d="M484.49 33.6301C484.49 33.6301 495.98 48.1301 495.87 49.7201C495.42 56.3301 492.33 59.4901 492.33 59.4901C492.33 59.4901 493.06 59.6601 494.63 57.4901C496.2 55.3201 497.94 52.7201 497.89 50.4901C497.84 48.2601 491.73 40.4001 490.53 38.0901C489.29 35.9247 487.938 33.8252 486.48 31.8001L484.49 33.6301Z" fill="#263238"/>
<path d="M495.97 47.0601L497.61 40.3101L496.54 38.8001L494.86 44.8901L495.97 47.0601Z" fill="#263238"/>
<path opacity="0.4" d="M461.33 50.4501C461.33 50.4501 469.21 58.4501 470.01 58.0901C473.01 56.8501 482.87 43.8301 483.12 43.0201C483.37 42.2101 481.99 33.5801 481.69 33.4001C481.39 33.2201 476.69 31.1401 476.38 31.2801C475.009 31.8079 473.673 32.4225 472.38 33.1201C472 33.5201 461.33 50.4501 461.33 50.4501Z" fill="#333333"/>
<path opacity="0.3" d="M468.37 57.8501C468.3 57.7901 470.59 39.0801 470.59 39.0801C470.59 39.0801 473.92 34.4501 473.82 34.8101C473.72 35.1701 471.11 57.4401 471 57.5301C470.566 57.9296 470.078 58.2662 469.55 58.5301C469.453 58.5384 469.355 58.5176 469.27 58.4701C468.953 58.2887 468.652 58.0814 468.37 57.8501Z" fill="white"/>
<path d="M495.54 10.1401C496.86 10.1401 503.41 9.91012 500.41 14.0501C497.41 18.1901 489 27.4001 489 27.4001C489 31.2101 489.81 34.6601 488.83 36.6001C487.85 38.5401 482.83 43.3501 482.83 43.3501C482.83 43.3501 479.83 40.7301 479.69 37.5901C479.55 34.4501 478.97 33.4101 476.25 33.9201C473.53 34.4301 461.25 51.0301 461.25 51.0301C461.25 51.0301 456.19 46.0301 454.86 40.1301C453.6 34.5401 454.86 27.4901 461.77 20.9601C473.28 10.1101 487.34 9.87011 495.54 10.1401Z" fill="#263238"/>
<path d="M467 43.4701C467 43.4701 458.65 36.3101 461.3 28.9501C464.9 18.9501 478.23 11.7901 478.04 11.8401C477.85 11.8901 474.67 12.9201 474.48 13.0001C474.29 13.0801 461.4 19.8901 459.14 29.8601C459.045 32.741 459.557 35.6096 460.642 38.2799C461.727 40.9502 463.362 43.3625 465.44 45.3601L467 43.4701Z" fill="#333333"/>
<path d="M514.4 40.0302L495.79 52.7702C495.79 52.7702 493.61 65.9902 493.42 66.5402C493.23 67.0902 491.66 79.6402 490.77 85.3202C490.54 86.7902 488.83 88.6102 487.35 88.6902L463.35 89.9202L459.82 99.0202C459.82 99.0202 498.82 103.3 502.52 100.7C506.22 98.1001 513.86 70.4201 515.9 64.7001C517.94 58.9801 524.05 45.4202 514.4 40.0302Z" fill="#333333"/>
<path d="M563.15 264.27C562.055 258.765 561.244 253.208 560.72 247.62C558.48 225 555.18 186.77 552.25 180.25C549.54 174.25 553.15 162.04 553.44 157.6C554.03 148.53 558.66 125.16 558.66 125.16C558.66 125.16 590.04 139.38 589.14 140.06C588.24 140.74 579.7 174.06 579.7 174.06C579.7 174.06 581.8 185.97 583.11 199.4C584.58 214.4 576.25 266.92 576.25 266.92L563.15 264.27Z" fill="#CD7A63"/>
<path d="M463 90.6001C463 90.6001 448.81 85.4201 446 86.3401C443.19 87.2601 438.41 92.1801 438.48 93.7001C438.55 95.2201 440.68 96.7001 440.68 96.7001C440.68 96.7001 440.08 98.5301 441.14 99.0601C441.74 99.363 442.324 99.6968 442.89 100.06C443.005 100.446 443.232 100.789 443.542 101.047C443.851 101.305 444.23 101.466 444.63 101.51C445.764 101.679 446.916 101.679 448.05 101.51L446.83 99.7601L449.57 98.1701C450.395 99.0063 451.424 99.6138 452.554 99.9328C453.685 100.252 454.879 100.272 456.02 99.9901C458.146 99.5427 460.308 99.2884 462.48 99.2301L463 90.6001Z" fill="#CD7A63"/>
<path d="M555.24 142.46C557.42 126.25 561.85 108 566.91 91.6001L604.59 62.6001C604.59 62.6001 613.16 72.5301 614.07 82.9201C614.98 93.3101 609.55 100.53 605.26 105.5C600.97 110.47 585.84 151.03 585.84 151.03L555.24 142.46Z" fill="#263238"/>
<path d="M604.69 61.4801C604.69 61.4801 600.77 49.3801 573.23 42.6101C545.69 35.8401 523.79 34.4801 511.14 39.0001C498.49 43.5201 495.79 52.7701 495.79 52.7701L510.16 80.7701L564.16 88.6301L566.87 91.5601C566.87 91.5601 592 76.7001 599 69.9301C606 63.1601 604.69 61.4801 604.69 61.4801Z" fill="#333333"/>
<path opacity="0.3" d="M515.76 60.2701C515.76 60.2701 564.39 63.0701 572.52 68.2701C577.442 71.4399 581.72 75.5114 585.13 80.2701C585.13 80.2701 578.29 84.6901 578.74 84.4101C579.19 84.1301 573.59 75.2201 569.17 73.3201C564.75 71.4201 514.17 67.0101 514.17 67.0101L515.76 60.2701Z" fill="white"/>
<path opacity="0.3" d="M510.96 80.9301L517.62 81.9001L515.49 61.4801L510.96 80.9301Z" fill="black"/>
<path opacity="0.3" d="M467.26 99.5601L469.95 96.1101C469.95 96.1101 497.17 96.8401 499.47 95.2801C501.77 93.7201 505.54 82.6201 505.54 82.6201L509.47 84.8401C509.47 84.8401 505.34 99.1701 502.47 100.7C497 103.64 467.26 99.5601 467.26 99.5601Z" fill="white"/>
<path opacity="0.3" d="M531.92 36.3901L538.23 50.0401L580.29 58.1001L593.67 50.5401C593.67 50.5401 588.79 46.7201 577.19 43.6601C562.389 39.6907 547.219 37.2546 531.92 36.3901Z" fill="white"/>
</g>
<defs>
<clipPath id="clip0_1413_2084">
<rect width="1390" height="200" fill="white"/>
</clipPath>
</defs>
</svg>
